<svg width="25" height="24" viewBox="0 0 25 24" fill="none" xmlns="http://www.w3.org/2000/svg">
<path d="M6.5 9.73765C6.5 9.32364 6.83525 8.98765 7.25 8.98765H11.75C12.1648 8.98765 12.5 9.32364 12.5 9.73765C12.5 10.1516 12.1648 10.4876 11.75 10.4876H7.25C6.83525 10.4876 6.5 10.1516 6.5 9.73765ZM11.75 11.9876H7.25C6.83525 11.9876 6.5 12.3236 6.5 12.7376C6.5 13.1516 6.83525 13.4876 7.25 13.4876H11.75C12.1648 13.4876 12.5 13.1516 12.5 12.7376C12.5 12.3236 12.1648 11.9876 11.75 11.9876ZM11.75 14.9876H7.25C6.83525 14.9876 6.5 15.3236 6.5 15.7376C6.5 16.1516 6.83525 16.4876 7.25 16.4876H11.75C12.1648 16.4876 12.5 16.1516 12.5 15.7376C12.5 15.3236 12.1648 14.9876 11.75 14.9876ZM11.75 17.9876H7.25C6.83525 17.9876 6.5 18.3236 6.5 18.7376C6.5 19.1516 6.83525 19.4876 7.25 19.4876H11.75C12.1648 19.4876 12.5 19.1516 12.5 18.7376C12.5 18.3236 12.1648 17.9876 11.75 17.9876ZM23 21.7376C23 22.1516 22.6647 22.4876 22.25 22.4876H2.75C2.33525 22.4876 2 22.1516 2 21.7376C2 21.3236 2.33525 20.9876 2.75 20.9876H3.5V7.20115C3.5 6.62889 3.818 6.11514 4.32875 5.85939L13.3287 1.35939C13.7982 1.12539 14.3428 1.14939 14.7882 1.42464C15.2338 1.69989 15.4993 2.17689 15.4993 2.70114V8.23765H19.9993C20.8265 8.23765 21.4993 8.91039 21.4993 9.73765V20.9876H22.2493C22.664 20.9876 23 21.3236 23 21.7376ZM15.5 9.73765V20.9876H20V9.73765H15.5ZM5 20.9876H14V2.70114L5 7.20115V20.9876Z" fill="#223671"/>
</svg>
