<svg width="20" height="20" viewBox="0 0 20 20" fill="none" xmlns="http://www.w3.org/2000/svg">
<path fill-rule="evenodd" clip-rule="evenodd" d="M8.59106 1.87499H11.4089C11.5893 1.87487 11.7464 1.87477 11.8947 1.89846C12.4808 1.99205 12.988 2.35759 13.2621 2.884C13.3315 3.01724 13.381 3.16631 13.438 3.33742L13.531 3.6165C13.5467 3.66374 13.5512 3.67712 13.555 3.68765C13.701 4.09108 14.0793 4.3638 14.5082 4.37467C14.5195 4.37495 14.5333 4.375 14.5833 4.375H17.0833C17.4285 4.375 17.7083 4.65482 17.7083 5C17.7083 5.34518 17.4285 5.625 17.0833 5.625H2.91659C2.57141 5.625 2.29159 5.34518 2.29159 5C2.29159 4.65482 2.57141 4.375 2.91659 4.375H5.41666C5.46669 4.375 5.48051 4.37495 5.49178 4.37467C5.92066 4.3638 6.29901 4.0911 6.44494 3.68767C6.44878 3.67706 6.45319 3.66398 6.46901 3.6165L6.56202 3.33744C6.61893 3.16634 6.66852 3.01725 6.73791 2.884C7.01203 2.35759 7.5192 1.99205 8.10528 1.89846C8.25363 1.87477 8.41073 1.87487 8.59106 1.87499ZM7.50671 4.375C7.54964 4.29082 7.58768 4.20334 7.6204 4.11287C7.63034 4.0854 7.64008 4.05615 7.6526 4.01858L7.73577 3.76907C7.81175 3.54115 7.82924 3.49466 7.8466 3.46134C7.93797 3.28587 8.10702 3.16402 8.30239 3.13282C8.33949 3.1269 8.38911 3.125 8.62938 3.125H11.3706C11.6109 3.125 11.6605 3.1269 11.6976 3.13282C11.893 3.16402 12.062 3.28587 12.1534 3.46133C12.1707 3.49466 12.1882 3.54114 12.2642 3.76907L12.3473 4.01843L12.3796 4.11289C12.4123 4.20335 12.4503 4.29082 12.4933 4.375H7.50671Z" fill="#929090"/>
<path d="M4.92916 7.04176C4.9062 6.69735 4.60839 6.43676 4.26397 6.45972C3.91956 6.48268 3.65897 6.7805 3.68193 7.12491L4.06814 12.918C4.13938 13.987 4.19694 14.8504 4.33191 15.528C4.47224 16.2324 4.71093 16.8208 5.20392 17.282C5.69692 17.7432 6.29988 17.9423 7.01208 18.0354C7.69711 18.125 8.56246 18.125 9.63376 18.125H10.3662C11.4375 18.125 12.3029 18.125 12.9879 18.0354C13.7001 17.9423 14.3031 17.7432 14.7961 17.282C15.2891 16.8208 15.5277 16.2324 15.6681 15.528C15.803 14.8504 15.8606 13.987 15.9318 12.918L16.3181 7.12491C16.341 6.7805 16.0804 6.48268 15.736 6.45972C15.3916 6.43676 15.0938 6.69735 15.0708 7.04176L14.6875 12.791C14.6127 13.9142 14.5593 14.6958 14.4422 15.2838C14.3285 15.8541 14.1699 16.1561 13.9421 16.3692C13.7142 16.5824 13.4024 16.7205 12.8258 16.796C12.2313 16.8737 11.4479 16.875 10.3222 16.875H9.67776C8.55205 16.875 7.76872 16.8737 7.17421 16.796C6.59755 16.7205 6.28575 16.5824 6.0579 16.3692C5.83006 16.1561 5.67145 15.8541 5.55782 15.2838C5.44068 14.6957 5.38733 13.9142 5.31245 12.791L4.92916 7.04176Z" fill="#929090"/>
<path d="M7.85447 8.54477C8.19794 8.51042 8.50422 8.76101 8.53856 9.10448L8.95523 13.2711C8.98958 13.6146 8.73899 13.9209 8.39552 13.9552C8.05206 13.9896 7.74578 13.739 7.71143 13.3955L7.29477 9.22886C7.26042 8.88539 7.51101 8.57912 7.85447 8.54477Z" fill="#929090"/>
<path d="M12.1455 8.54477C12.489 8.57912 12.7396 8.88539 12.7052 9.22886L12.2886 13.3955C12.2542 13.739 11.9479 13.9896 11.6045 13.9552C11.261 13.9209 11.0104 13.6146 11.0448 13.2711L11.4614 9.10448C11.4958 8.76101 11.8021 8.51042 12.1455 8.54477Z" fill="#929090"/>
</svg>
