<svg width="104" height="88" viewBox="0 0 104 88" fill="none" xmlns="http://www.w3.org/2000/svg">
<path d="M31 30.8776C31 28.3665 31.4942 25.8799 32.4546 23.56C33.4149 21.2399 34.8225 19.1319 36.5969 17.3562C38.3714 15.5805 40.4778 14.172 42.7962 13.211C45.1147 12.2501 47.5996 11.7554 50.1091 11.7554V30.8776H31Z" fill="#442781"/>
<path d="M31 30.8777C31 33.3889 31.4942 35.8755 32.4546 38.1956C33.4149 40.5156 34.8225 42.6236 36.5969 44.3992C38.3714 46.1749 40.4778 47.5835 42.7962 48.5445C45.1147 49.5055 47.5996 50 50.1091 50V30.8777H31Z" fill="#61459C"/>
<path d="M69.2179 30.8777C69.2179 33.3889 68.724 35.8755 67.7638 38.1956C66.8035 40.5156 65.396 42.6236 63.6212 44.3992C61.8468 46.1749 59.7403 47.5835 57.4218 48.5445C55.1035 49.5055 52.6185 50 50.1092 50V30.8777H69.2179Z" fill="#A992DB"/>
<path d="M81 14.3578C81 22.2873 74.576 28.7155 66.6521 28.7155H52.3044V14.3578C52.3044 6.42822 58.7281 0 66.6521 0C74.576 0 81 6.42822 81 14.3578Z" fill="#FF7917"/>
<path d="M1.504 74L1.504 62.8H6.272C7.008 62.8 7.62667 62.9067 8.128 63.12C8.64 63.3333 9.024 63.6533 9.28 64.08C9.54667 64.496 9.68 65.0027 9.68 65.6C9.68 66.2187 9.51467 66.7413 9.184 67.168C8.85333 67.5947 8.38933 67.888 7.792 68.048L7.776 67.728C8.27733 67.8347 8.71467 68.0267 9.088 68.304C9.46133 68.5707 9.74933 68.9067 9.952 69.312C10.1653 69.7067 10.272 70.16 10.272 70.672C10.272 71.216 10.1813 71.696 10 72.112C9.82933 72.528 9.57333 72.8747 9.232 73.152C8.89067 73.4293 8.48533 73.6427 8.016 73.792C7.54667 73.9307 7.01867 74 6.432 74H1.504ZM3.536 72.128H6.336C6.73067 72.128 7.06133 72.0693 7.328 71.952C7.60533 71.8347 7.81333 71.664 7.952 71.44C8.10133 71.2053 8.176 70.928 8.176 70.608C8.176 70.3093 8.096 70.0533 7.936 69.84C7.78667 69.6267 7.568 69.4667 7.28 69.36C6.992 69.2427 6.65067 69.184 6.256 69.184H3.536L3.536 72.128ZM3.536 67.392H6.08C6.38933 67.392 6.656 67.3333 6.88 67.216C7.11467 67.0987 7.296 66.9387 7.424 66.736C7.552 66.5333 7.616 66.2987 7.616 66.032C7.616 65.6053 7.472 65.2747 7.184 65.04C6.896 64.7947 6.47467 64.672 5.92 64.672H3.536L3.536 67.392ZM16.008 74.16C15.1653 74.16 14.4133 73.9733 13.752 73.6C13.0907 73.216 12.568 72.6933 12.184 72.032C11.8 71.3707 11.608 70.6187 11.608 69.776C11.608 68.9333 11.8 68.1813 12.184 67.52C12.568 66.8587 13.0907 66.3413 13.752 65.968C14.4133 65.584 15.1653 65.392 16.008 65.392C16.84 65.392 17.5867 65.584 18.248 65.968C18.9093 66.3413 19.4267 66.8587 19.8 67.52C20.184 68.1813 20.376 68.9333 20.376 69.776C20.376 70.6187 20.184 71.3707 19.8 72.032C19.4267 72.6933 18.9093 73.216 18.248 73.6C17.5867 73.9733 16.84 74.16 16.008 74.16ZM16.008 72.416C16.4667 72.416 16.872 72.2987 17.224 72.064C17.5867 71.8293 17.8693 71.5147 18.072 71.12C18.2853 70.7253 18.3867 70.2773 18.376 69.776C18.3867 69.264 18.2853 68.8107 18.072 68.416C17.8693 68.0213 17.5867 67.712 17.224 67.488C16.872 67.2533 16.4667 67.136 16.008 67.136C15.5493 67.136 15.1333 67.2533 14.76 67.488C14.3973 67.712 14.1147 68.0267 13.912 68.432C13.7093 68.8267 13.608 69.2747 13.608 69.776C13.608 70.2773 13.7093 70.7253 13.912 71.12C14.1147 71.5147 14.3973 71.8293 14.76 72.064C15.1333 72.2987 15.5493 72.416 16.008 72.416ZM25.9924 74.16C25.1497 74.16 24.3977 73.9733 23.7364 73.6C23.075 73.216 22.5524 72.6933 22.1684 72.032C21.7844 71.3707 21.5924 70.6187 21.5924 69.776C21.5924 68.9333 21.7844 68.1813 22.1684 67.52C22.5524 66.8587 23.075 66.3413 23.7364 65.968C24.3977 65.584 25.1497 65.392 25.9924 65.392C26.8244 65.392 27.571 65.584 28.2324 65.968C28.8937 66.3413 29.411 66.8587 29.7844 67.52C30.1684 68.1813 30.3604 68.9333 30.3604 69.776C30.3604 70.6187 30.1684 71.3707 29.7844 72.032C29.411 72.6933 28.8937 73.216 28.2324 73.6C27.571 73.9733 26.8244 74.16 25.9924 74.16ZM25.9924 72.416C26.451 72.416 26.8564 72.2987 27.2084 72.064C27.571 71.8293 27.8537 71.5147 28.0564 71.12C28.2697 70.7253 28.371 70.2773 28.3604 69.776C28.371 69.264 28.2697 68.8107 28.0564 68.416C27.8537 68.0213 27.571 67.712 27.2084 67.488C26.8564 67.2533 26.451 67.136 25.9924 67.136C25.5337 67.136 25.1177 67.2533 24.7444 67.488C24.3817 67.712 24.099 68.0267 23.8964 68.432C23.6937 68.8267 23.5924 69.2747 23.5924 69.776C23.5924 70.2773 23.6937 70.7253 23.8964 71.12C24.099 71.5147 24.3817 71.8293 24.7444 72.064C25.1177 72.2987 25.5337 72.416 25.9924 72.416ZM33.9608 71.424L33.5768 69.584L37.5768 65.568H40.2008L33.9608 71.424ZM32.1208 74V62.16H34.0888V74H32.1208ZM37.8168 74L34.7128 70.24L36.1048 69.056L40.2488 74H37.8168ZM53.7818 74V62.8H55.8618V74H53.7818ZM46.5978 74V62.8H48.6778V74H46.5978ZM47.4618 69.392V67.44H54.7898V69.392H47.4618ZM61.711 74.16C61.0177 74.16 60.3883 73.968 59.823 73.584C59.2577 73.2 58.8043 72.6773 58.463 72.016C58.1217 71.3547 57.951 70.6027 57.951 69.76C57.951 68.9173 58.1217 68.1653 58.463 67.504C58.8043 66.8427 59.2683 66.3253 59.855 65.952C60.4417 65.5787 61.103 65.392 61.839 65.392C62.2657 65.392 62.655 65.456 63.007 65.584C63.359 65.7013 63.6683 65.872 63.935 66.096C64.2017 66.32 64.4203 66.576 64.591 66.864C64.7723 67.152 64.895 67.4613 64.959 67.792L64.527 67.68V65.568H66.511L66.511 74H64.511L64.511 71.984L64.975 71.904C64.9003 72.192 64.7617 72.4747 64.559 72.752C64.367 73.0187 64.1217 73.2587 63.823 73.472C63.535 73.6747 63.2097 73.84 62.847 73.968C62.495 74.096 62.1163 74.16 61.711 74.16ZM62.255 72.416C62.7137 72.416 63.119 72.304 63.471 72.08C63.823 71.856 64.095 71.5467 64.287 71.152C64.4897 70.7467 64.591 70.2827 64.591 69.76C64.591 69.248 64.4897 68.7947 64.287 68.4C64.095 68.0053 63.823 67.696 63.471 67.472C63.119 67.248 62.7137 67.136 62.255 67.136C61.7963 67.136 61.391 67.248 61.039 67.472C60.6977 67.696 60.431 68.0053 60.239 68.4C60.047 68.7947 59.951 69.248 59.951 69.76C59.951 70.2827 60.047 70.7467 60.239 71.152C60.431 71.5467 60.6977 71.856 61.039 72.08C61.391 72.304 61.7963 72.416 62.255 72.416ZM71.3091 74L67.7571 65.568H69.9011L72.3011 71.872L71.8851 71.984L74.4131 65.568H76.5091L72.7811 74H71.3091ZM81.6665 74.16C80.7812 74.16 79.9972 73.9733 79.3145 73.6C78.6425 73.2267 78.1145 72.72 77.7305 72.08C77.3572 71.4293 77.1705 70.688 77.1705 69.856C77.1705 69.1947 77.2772 68.592 77.4905 68.048C77.7038 67.504 77.9972 67.0347 78.3705 66.64C78.7545 66.2347 79.2078 65.9253 79.7305 65.712C80.2638 65.488 80.8452 65.376 81.4745 65.376C82.0292 65.376 82.5465 65.4827 83.0265 65.696C83.5065 65.9093 83.9225 66.2027 84.2745 66.576C84.6265 66.9387 84.8932 67.376 85.0745 67.888C85.2665 68.3893 85.3572 68.9387 85.3465 69.536L85.3305 70.224L78.4985 70.224L78.1305 68.88L83.6825 68.88L83.4265 69.152V68.8C83.3945 68.4693 83.2878 68.1813 83.1065 67.936C82.9252 67.68 82.6905 67.4827 82.4025 67.344C82.1252 67.1947 81.8158 67.12 81.4745 67.12C80.9518 67.12 80.5092 67.2213 80.1465 67.424C79.7945 67.6267 79.5278 67.92 79.3465 68.304C79.1652 68.6773 79.0745 69.1467 79.0745 69.712C79.0745 70.256 79.1865 70.7307 79.4105 71.136C79.6452 71.5413 79.9705 71.856 80.3865 72.08C80.8132 72.2933 81.3092 72.4 81.8745 72.4C82.2692 72.4 82.6318 72.336 82.9625 72.208C83.2932 72.08 83.6505 71.8507 84.0345 71.52L85.0105 72.88C84.7225 73.1467 84.3918 73.376 84.0185 73.568C83.6558 73.7493 83.2718 73.8933 82.8665 74C82.4612 74.1067 82.0612 74.16 81.6665 74.16ZM87.0895 74L87.0895 65.568H89.0095L89.0415 67.296L88.6735 67.488C88.7802 67.104 88.9882 66.7573 89.2975 66.448C89.6068 66.128 89.9748 65.872 90.4015 65.68C90.8282 65.488 91.2655 65.392 91.7135 65.392C92.3535 65.392 92.8868 65.52 93.3135 65.776C93.7508 66.032 94.0762 66.416 94.2895 66.928C94.5135 67.44 94.6255 68.08 94.6255 68.848L94.6255 74H92.6575L92.6575 68.992C92.6575 68.5653 92.5988 68.2133 92.4815 67.936C92.3642 67.648 92.1828 67.44 91.9375 67.312C91.6922 67.1733 91.3935 67.1093 91.0415 67.12C90.7535 67.12 90.4868 67.168 90.2415 67.264C90.0068 67.3493 89.7988 67.4773 89.6175 67.648C89.4468 67.808 89.3082 67.9947 89.2015 68.208C89.1055 68.4213 89.0575 68.656 89.0575 68.912L89.0575 74H88.0815C87.8895 74 87.7082 74 87.5375 74C87.3775 74 87.2282 74 87.0895 74Z" fill="black"/>
</svg>
