<svg width="16" height="16" viewBox="0 0 16 16" fill="none" xmlns="http://www.w3.org/2000/svg">
<path fill-rule="evenodd" clip-rule="evenodd" d="M4.84173 2.17362C4.92146 1.42027 5.55885 0.833313 6.33333 0.833313H9.66667C10.4411 0.833313 11.0785 1.42027 11.1583 2.17362C11.667 2.18397 12.1068 2.21029 12.4824 2.27928C12.9878 2.3721 13.4178 2.54893 13.7678 2.89888C14.169 3.30016 14.3416 3.80541 14.4223 4.40548C14.5 4.98346 14.5 5.71834 14.5 6.63007V10.7032C14.5 11.615 14.5 12.3498 14.4223 12.9278C14.3416 13.5279 14.169 14.0331 13.7678 14.4344C13.3665 14.8357 12.8612 15.0083 12.2612 15.089C11.6832 15.1667 10.9483 15.1667 10.0366 15.1666H5.96342C5.05169 15.1667 4.31681 15.1667 3.73883 15.089C3.13876 15.0083 2.63351 14.8357 2.23223 14.4344C1.83096 14.0331 1.65836 13.5279 1.57768 12.9278C1.49997 12.3498 1.49999 11.615 1.5 10.7032V6.63006C1.49999 5.71834 1.49997 4.98346 1.57768 4.40548C1.65836 3.80541 1.83096 3.30016 2.23223 2.89888C2.58219 2.54893 3.01224 2.3721 3.51757 2.27928C3.89315 2.21029 4.33301 2.18397 4.84173 2.17362ZM4.84331 3.17389C4.36452 3.18411 3.99557 3.2082 3.69823 3.26282C3.32036 3.33223 3.10164 3.44368 2.93934 3.60599C2.75483 3.79049 2.63453 4.04954 2.56876 4.53873C2.50106 5.04229 2.5 5.7097 2.5 6.66665V10.6666C2.5 11.6236 2.50106 12.291 2.56876 12.7946C2.63453 13.2837 2.75483 13.5428 2.93934 13.7273C3.12385 13.9118 3.3829 14.0321 3.87208 14.0979C4.37565 14.1656 5.04306 14.1666 6 14.1666H10C10.9569 14.1666 11.6244 14.1656 12.1279 14.0979C12.6171 14.0321 12.8762 13.9118 13.0607 13.7273C13.2452 13.5428 13.3655 13.2837 13.4312 12.7946C13.4989 12.291 13.5 11.6236 13.5 10.6666V6.66665C13.5 5.7097 13.4989 5.04229 13.4312 4.53873C13.3655 4.04954 13.2452 3.79049 13.0607 3.60599C12.8984 3.44368 12.6796 3.33223 12.3018 3.26282C12.0044 3.2082 11.6355 3.18411 11.1567 3.17389C11.0705 3.92039 10.4363 4.49998 9.66667 4.49998H6.33333C5.56373 4.49998 4.9295 3.92039 4.84331 3.17389ZM6.33333 1.83331C6.05719 1.83331 5.83333 2.05717 5.83333 2.33331V2.99998C5.83333 3.27612 6.05719 3.49998 6.33333 3.49998H9.66667C9.94281 3.49998 10.1667 3.27612 10.1667 2.99998V2.33331C10.1667 2.05717 9.94281 1.83331 9.66667 1.83331H6.33333ZM4.16667 6.99998C4.16667 6.72384 4.39052 6.49998 4.66667 6.49998H5C5.27614 6.49998 5.5 6.72384 5.5 6.99998C5.5 7.27612 5.27614 7.49998 5 7.49998H4.66667C4.39052 7.49998 4.16667 7.27612 4.16667 6.99998ZM6.5 6.99998C6.5 6.72384 6.72386 6.49998 7 6.49998H11.3333C11.6095 6.49998 11.8333 6.72384 11.8333 6.99998C11.8333 7.27612 11.6095 7.49998 11.3333 7.49998H7C6.72386 7.49998 6.5 7.27612 6.5 6.99998ZM4.16667 9.33331C4.16667 9.05717 4.39052 8.83331 4.66667 8.83331H5C5.27614 8.83331 5.5 9.05717 5.5 9.33331C5.5 9.60945 5.27614 9.83331 5 9.83331H4.66667C4.39052 9.83331 4.16667 9.60945 4.16667 9.33331ZM6.5 9.33331C6.5 9.05717 6.72386 8.83331 7 8.83331H11.3333C11.6095 8.83331 11.8333 9.05717 11.8333 9.33331C11.8333 9.60945 11.6095 9.83331 11.3333 9.83331H7C6.72386 9.83331 6.5 9.60945 6.5 9.33331ZM4.16667 11.6666C4.16667 11.3905 4.39052 11.1666 4.66667 11.1666H5C5.27614 11.1666 5.5 11.3905 5.5 11.6666C5.5 11.9428 5.27614 12.1666 5 12.1666H4.66667C4.39052 12.1666 4.16667 11.9428 4.16667 11.6666ZM6.5 11.6666C6.5 11.3905 6.72386 11.1666 7 11.1666H11.3333C11.6095 11.1666 11.8333 11.3905 11.8333 11.6666C11.8333 11.9428 11.6095 12.1666 11.3333 12.1666H7C6.72386 12.1666 6.5 11.9428 6.5 11.6666Z" fill="#1C274C"/>
</svg>
