<svg width="40" height="40" viewBox="0 0 40 40" fill="none" xmlns="http://www.w3.org/2000/svg">
<path fill-rule="evenodd" clip-rule="evenodd" d="M20.0001 9.25C15.7199 9.25 12.2501 12.7198 12.2501 17V17.7041C12.2501 18.401 12.0438 19.0824 11.6572 19.6622L10.5086 21.3851C9.1755 23.3848 10.1932 26.1028 12.5118 26.7351C13.2674 26.9412 14.0294 27.1155 14.7958 27.2581L14.7977 27.2632C15.5667 29.3151 17.622 30.75 20 30.75C22.378 30.75 24.4333 29.3151 25.2023 27.2632L25.2042 27.2581C25.9706 27.1155 26.7327 26.9412 27.4883 26.7351C29.8069 26.1028 30.8246 23.3848 29.4915 21.3851L28.3429 19.6622C27.9564 19.0824 27.7501 18.401 27.7501 17.7041V17C27.7501 12.7198 24.2803 9.25 20.0001 9.25ZM23.3765 27.537C21.1335 27.805 18.8665 27.8049 16.6235 27.5369C17.3345 28.5585 18.571 29.25 20 29.25C21.429 29.25 22.6655 28.5585 23.3765 27.537ZM13.7501 17C13.7501 13.5482 16.5483 10.75 20.0001 10.75C23.4518 10.75 26.2501 13.5482 26.2501 17V17.7041C26.2501 18.6972 26.544 19.668 27.0949 20.4943L28.2435 22.2172C29.0086 23.3649 28.4245 24.925 27.0937 25.288C22.4494 26.5546 17.5507 26.5546 12.9065 25.288C11.5756 24.925 10.9915 23.3649 11.7567 22.2172L12.9053 20.4943C13.4561 19.668 13.7501 18.6972 13.7501 17.7041V17Z" fill="#1C2A4F"/>
<circle cx="26" cy="12" r="4" fill="#D80800"/>
</svg>
