<svg width="24" height="25" viewBox="0 0 24 25" fill="none" xmlns="http://www.w3.org/2000/svg">
<path d="M18 16.4877L22 12.4877L18 8.48767V11.4877H12.94C12.6 8.38767 10.68 5.76767 8 4.43767C7.96 2.79767 6.64 1.48767 5 1.48767C3.34 1.48767 2 2.82767 2 4.48767C2 6.14767 3.34 7.48767 5 7.48767C5.95 7.48767 6.78 7.03767 7.33 6.34767C9.23 7.38767 10.6 9.25767 10.92 11.4877H7.82C7.4 10.3277 6.3 9.48767 5 9.48767C3.34 9.48767 2 10.8277 2 12.4877C2 14.1477 3.34 15.4877 5 15.4877C6.3 15.4877 7.4 14.6477 7.82 13.4877H10.92C10.6 15.7177 9.23 17.5877 7.34 18.6277C6.78 17.9377 5.95 17.4877 5 17.4877C3.34 17.4877 2 18.8277 2 20.4877C2 22.1477 3.34 23.4877 5 23.4877C6.64 23.4877 7.96 22.1777 7.99 20.5377C10.67 19.2077 12.59 16.5877 12.93 13.4877H18V16.4877Z" fill="#223671"/>
</svg>
