<svg width="20" height="21" viewBox="0 0 20 21" fill="none" xmlns="http://www.w3.org/2000/svg">
<path d="M17.4328 11.4677C17.4728 11.1477 17.5028 10.8277 17.5028 10.4877C17.5028 10.1477 17.4728 9.82767 17.4328 9.50767L19.5428 7.85767C19.7328 7.70767 19.7828 7.43767 19.6628 7.21767L17.6628 3.75767C17.5728 3.59767 17.4028 3.50767 17.2228 3.50767C17.1628 3.50767 17.1028 3.51767 17.0528 3.53767L14.5628 4.53767C14.0428 4.13767 13.4828 3.80767 12.8728 3.55767L12.4928 0.907671C12.4628 0.667671 12.2528 0.487671 12.0028 0.487671H8.00277C7.75277 0.487671 7.54277 0.667671 7.51277 0.907671L7.13277 3.55767C6.52277 3.80767 5.96277 4.14767 5.44277 4.53767L2.95277 3.53767C2.89277 3.51767 2.83277 3.50767 2.77277 3.50767C2.60277 3.50767 2.43277 3.59767 2.34277 3.75767L0.342769 7.21767C0.212769 7.43767 0.272769 7.70767 0.462769 7.85767L2.57277 9.50767C2.53277 9.82767 2.50277 10.1577 2.50277 10.4877C2.50277 10.8177 2.53277 11.1477 2.57277 11.4677L0.462769 13.1177C0.272769 13.2677 0.222769 13.5377 0.342769 13.7577L2.34277 17.2177C2.43277 17.3777 2.60277 17.4677 2.78277 17.4677C2.84277 17.4677 2.90277 17.4577 2.95277 17.4377L5.44277 16.4377C5.96277 16.8377 6.52277 17.1677 7.13277 17.4177L7.51277 20.0677C7.54277 20.3077 7.75277 20.4877 8.00277 20.4877H12.0028C12.2528 20.4877 12.4628 20.3077 12.4928 20.0677L12.8728 17.4177C13.4828 17.1677 14.0428 16.8277 14.5628 16.4377L17.0528 17.4377C17.1128 17.4577 17.1728 17.4677 17.2328 17.4677C17.4028 17.4677 17.5728 17.3777 17.6628 17.2177L19.6628 13.7577C19.7828 13.5377 19.7328 13.2677 19.5428 13.1177L17.4328 11.4677ZM15.4528 9.75767C15.4928 10.0677 15.5028 10.2777 15.5028 10.4877C15.5028 10.6977 15.4828 10.9177 15.4528 11.2177L15.3128 12.3477L16.2028 13.0477L17.2828 13.8877L16.5828 15.0977L15.3128 14.5877L14.2728 14.1677L13.3728 14.8477C12.9428 15.1677 12.5328 15.4077 12.1228 15.5777L11.0628 16.0077L10.9028 17.1377L10.7028 18.4877H9.30277L8.95277 16.0077L7.89277 15.5777C7.46277 15.3977 7.06277 15.1677 6.66277 14.8677L5.75277 14.1677L4.69277 14.5977L3.42277 15.1077L2.72277 13.8977L3.80277 13.0577L4.69277 12.3577L4.55277 11.2277C4.52277 10.9177 4.50277 10.6877 4.50277 10.4877C4.50277 10.2877 4.52277 10.0577 4.55277 9.75767L4.69277 8.62767L3.80277 7.92767L2.72277 7.08767L3.42277 5.87767L4.69277 6.38767L5.73277 6.80767L6.63277 6.12767C7.06277 5.80767 7.47277 5.56767 7.88277 5.39767L8.94277 4.96767L9.10277 3.83767L9.30277 2.48767H10.6928L11.0428 4.96767L12.1028 5.39767C12.5328 5.57767 12.9328 5.80767 13.3328 6.10767L14.2428 6.80767L15.3028 6.37767L16.5728 5.86767L17.2728 7.07767L16.2028 7.92767L15.3128 8.62767L15.4528 9.75767ZM10.0028 6.48767C7.79277 6.48767 6.00277 8.27767 6.00277 10.4877C6.00277 12.6977 7.79277 14.4877 10.0028 14.4877C12.2128 14.4877 14.0028 12.6977 14.0028 10.4877C14.0028 8.27767 12.2128 6.48767 10.0028 6.48767ZM10.0028 12.4877C8.90277 12.4877 8.00277 11.5877 8.00277 10.4877C8.00277 9.38767 8.90277 8.48767 10.0028 8.48767C11.1028 8.48767 12.0028 9.38767 12.0028 10.4877C12.0028 11.5877 11.1028 12.4877 10.0028 12.4877Z" fill="#223671"/>
</svg>
